<?xml version="1.0" standalone="no"?>
<!DOCTYPE svg PUBLIC "-//W3C//DTD SVG 1.1//EN" "http://www.w3.org/Graphics/SVG/1.1/DTD/svg11.dtd">
<svg xmlns="http://www.w3.org/2000/svg">
<metadata>Copyright (C) 2016 by original authors @ fontello.com</metadata>
<defs>
<font id="oneringdb" horiz-adv-x="1000" >
<font-face font-family="oneringdb" font-weight="400" font-stretch="normal" units-per-em="1000" ascent="850" descent="-150" />
<missing-glyph horiz-adv-x="1000" />
<glyph glyph-name="baggins" unicode="&#xe800;" d="M375-86c-45 11-133 72-196 134-73 74-111 158-121 275-10 102 16 194 77 278 33 45 34 48 10 75-14 15-50 34-80 42-30 9-55 21-55 29 0 22 65 16 141-13l71-27 87 43c210 104 455 21 579-196 18-32 37-80 42-106 5-27 21-58 36-68 24-17 27-34 22-138-8-213-75-306-213-300-39 2-99-6-133-18-59-20-207-25-267-10z m216 113c19 5 33 13 30 18-14 34-162 223-240 308-51 55-107 119-125 142-31 40-33 41-53 14-24-31-25-38-30-159-4-113 39-205 126-270 94-70 169-84 292-53z m68 315c21 64 41 80 104 84 44 2 53 8 49 30-14 85-139 197-246 221-74 16-176 3-214-29-28-23-27-25 42-101 39-43 68-83 65-88-11-17 140-171 162-167 12 2 29 25 38 50z m262 2c30 19-7 41-82 49-70 8-140-8-100-23 87-33 156-43 182-26z" horiz-adv-x="1000" />
<glyph glyph-name="fellowship" unicode="&#xe801;" d="M250-56c-52 24-122 97-162 169-29 52-29 54-4 131 56 168 195 340 366 453 115 75 198 93 298 64 93-27 142-78 173-181 18-61 18-78 0-129-80-228-291-448-486-506-83-26-129-26-185-1z m274 404c140 160 166 208 89 168-95-49-220-188-248-275-10-33-10-33 32-11 23 12 80 65 127 118z" horiz-adv-x="1000" />
<glyph glyph-name="tactics" unicode="&#xe802;" d="M451-10c-2 78-5 148-7 155-10 49-89 54-125 8-4-5-11-24-14-43l-8-33-21 21c-22 21-64 98-64 117 0 8 5 9 23 8 14-2 41 3 63 10 22 7 65 18 95 24 50 9 55 12 60 27 4 10 4 34 1 60-7 51-2 155 10 245l9 67-25 40c-30 50-34 66-25 93 11 34 38 55 73 59 38 3 64-9 82-38 20-32 17-60-12-107l-25-41 9-72c6-41 10-119 10-187 0-84 2-120 8-127 4-6 28-14 57-20 27-6 68-16 89-23 26-8 48-12 64-10 28 4 28 3 5-51-13-30-60-94-69-94-3 0-5 8-5 18 0 28-22 68-43 78-28 15-65 13-86-5l-17-15-3-151-3-152-21-2-20-1 0 120c0 66-2 135-4 154-8 66-16 7-19-135l-3-139-17 0-18 0-4 142z m78 335c10 6 18 15 18 19 0 6-2 6-11-1-6-5-16-14-23-19-17-12-6-12 16 1z m5 56c11 8 20 20 20 25 0 7-5 4-14-7-7-10-22-21-33-26-15-7-16-8-5-8 7 0 22 7 32 16z m1 64c10 8 19 18 19 24 0 7-5 6-18-8-10-9-29-21-42-26l-24-9 23 3c13 2 32 9 42 16z m-13 47c16 8 25 21 25 35 0 3-8-4-19-16-10-12-40-31-47-32-10-2-12-6-4-7 6 0 35 15 45 20z m-24 41c25 8 49 29 49 41 0 5-8 1-19-10-11-11-28-21-38-23-9-2-19-7-21-9-4-8 4-7 29 1z m23 65l17 15-22-8c-58-24-55-22-33-23 13 0 26 6 38 16z m38 157c4 15 0 33-10 45-9 13-27 19-42 20-14 1-30-4-40-14-11-9-18-24-18-38 0-16 8-33 21-43 15-11 37-14 54-8 16 6 30 22 35 38z" horiz-adv-x="1000" />
<glyph glyph-name="lore" unicode="&#xe803;" d="M464 21l-36 26-112 2c-89 2-133-1-205-12-50-8-93-14-94-12-1 1 4 27 12 58 43 173 87 370 107 483 8 43 9 46 28 48 10 1 22 7 24 12 3 6 13 10 21 10 11 0 17 5 20 18 3 14 7 18 15 14 33-15 47-13 58 12 6 13 12 24 13 26 2 1 12-9 23-23 16-20 33-29 75-44 61-20 89-37 112-67 9-11 20-21 24-21 4 0 17 11 29 24 16 17 44 33 94 54 39 16 84 38 100 50l28 21-4-32c-6-38 0-40 40-14 33 22 34 22 30-5-2-20-1-22 14-18 17 3 18 1 27-44 14-68 79-494 76-497-1-2-60 0-130 4-186 11-261-5-320-71-15-16-28-29-30-29-2 0-20 12-39 27z m-34 39c0 21-59 41-161 54-33 4-68 11-78 15-19 8-19 9-14 51 21 187 40 419 35 424-4 4-8 4-12 0-3-4-16-104-29-222-13-118-25-223-27-232-4-32 50-51 178-61 47-4 107-22 82-25-7 0-6-2 3-7 19-8 23-8 23 3z m53-3c0 12-59 58-84 65-14 4-45 10-70 13-25 4-47 8-49 10-4 4 10 383 16 461 4 44 4 44-13 44-10 0-17-4-17-9 0-4-5-97-10-206-15-311-15-295 3-305 9-4 46-13 81-19 55-8 70-14 99-35 35-27 44-31 44-19z m-115 15c-15 3-70 9-122 14-92 8-142 15-149 23-2 2 15 107 37 234 27 153 38 234 34 238-4 5-8 3-10-6-11-42-90-441-91-465l-2-28 108-8c136-9 233-11 195-2z m151 15c2 9 6 53 10 97 4 45 11 131 16 191 14 149 14 147-6 143-19-4-19-8-30-228-3-83-8-167-10-185-3-27-1-34 7-34 5 0 11 8 13 16z m39 14c7 4 15 10 17 12 2 2 16 11 31 20 20 12 54 20 138 31 61 8 113 17 115 19 2 3-1 68-8 146-26 326-25 318-38 303-4-4 0-92 9-215 9-114 13-210 11-213-2-2-43-10-90-16-103-15-131-24-170-54-40-31-49-52-15-33z m138 23c41 5 103 8 161 6 52-2 94-2 94 0 0 2-12 92-26 200-14 108-28 215-30 238-3 25-9 43-14 45-6 2-11 3-12 1-1-1 11-103 26-225 15-122 27-225 25-228-2-2-27-5-57-5-107 0-226-21-250-43l-15-14 15 8c9 4 46 12 83 17z" horiz-adv-x="1000" />
<glyph glyph-name="spirit" unicode="&#xe804;" d="M495-151c-1 6-15 96-29 201-15 105-27 192-28 193-1 1-88-33-195-75-106-43-189-74-184-70 178 138 315 248 315 251 0 3-69 59-153 125-84 65-157 122-162 127-5 4 78-28 184-70 107-43 194-77 195-76 1 1 14 90 28 197 15 107 29 196 31 199 2 2 16-84 30-192 15-107 29-198 31-200 2-3 89 30 194 72 104 42 189 76 189 75 0-1-72-58-160-127-88-69-161-128-161-130 0-2 73-60 161-129 88-69 160-126 160-127 0-1-82 32-183 72-101 41-188 75-193 75-7 1-15-41-37-199-16-111-31-197-33-192z m88 446c14 25 26 49 26 54 1 5-11 30-25 54l-26 45-61 0-61 0-25-46c-14-25-25-49-25-53 0-3 11-27 25-52l25-46 61 0 61 0 25 44z m-135-36c0 13 28 72 34 72 18 0 15-14-9-44-14-18-25-30-25-28z m77 29c-22 28-24 43-8 43 7 0 38-68 33-72-1-1-12 12-25 29z m-111 55c-23 3-24 4-10 8 9 2 24 4 34 5 34 0 38 7 23 43-7 18-13 34-11 35 1 1 12-11 24-27 21-26 22-30 14-39-5-6-10-15-10-21 0-11-16-12-64-4z m108 4c0 6-5 15-10 21-9 10-8 14 15 43 14 18 25 30 25 28 0-2-6-20-14-40l-15-37 28-4c50-6 57-11 26-16-45-7-55-6-55 5z m-177-242c-8 9-15 23-15 31 0 22 26 47 48 47 41 0 60-55 29-80-22-17-43-16-62 2z m249-6c-17 13-23 36-14 58 15 34 63 35 81 0 8-15 8-22 2-37-12-29-45-39-69-21z m-360 207c-28 12-35 44-14 70 25 33 80 15 80-26 0-33-35-57-66-44z m487 1c-13 7-27 29-27 45 0 4 6 15 13 24 16 21 49 23 68 4 18-18 16-51-4-67-18-14-30-16-50-6z m-378 221c-24 24-11 69 21 77 18 4 49-9 55-25 18-46-41-87-76-52z m246 0c-36 37 9 95 55 72 29-15 34-41 13-68-16-20-49-22-68-4z" horiz-adv-x="1000" />
<glyph glyph-name="leadership" unicode="&#xe805;" d="M223-52c0 16 3 26 9 28 8 3 9 50 9 371 0 360 0 367-12 374-9 6-13 15-13 28l0 20 68 0 68 0 0-20c0-12-4-25-9-29-8-7-9-26-8-125 1-84 4-118 9-120 13-4 86 74 106 113 21 43 41 114 36 129-2 5-10 9-17 9-10 0-12 4-12 25l0 25 68 0 68 0 0-24c0-19-3-25-13-28-7-1-12-8-12-15 0-25-26-111-46-152-29-61-72-111-133-155l-52-38-2-50c-2-50-2-50 13-50 46 0 142 58 202 122 73 78 115 172 121 273 3 50 2 54-10 62-9 6-13 14-13 28l0 20 68 0 68 0 0-20c0-12-4-24-9-28-5-5-9-27-12-61-9-152-89-302-207-393-51-39-86-57-156-82l-63-23-2-91c-2-85-1-91 11-97 9-5 12-13 12-28l0-22-68 0-67 0 0 24z" horiz-adv-x="1000" />
<glyph glyph-name="attack" unicode="&#xe806;" d="M677-31c-30 41-68 98-86 126-36 60-66 124-85 124-15 0-71-100-95-130-13-16-116-176-132-176-41 0-29 35 54 154 29 43 52 78 69 109 16 31 48 59 34 85-13 24-10 23 9 40 20 18-39 79-57 108-59 96-64 100-98 82-51-27-48-136 4-188 30-30 19-37-29-18-147 58-165 70-198 130-48 70-34 106-38 159l11 64 42-39c57-52 112-33 144 34 19 40 19 48-6 98-14 30-23 57-19 61 3 4 30-19 59-51 44-48 63-48 102-59 49-13 57 20 49-13-4-19-16-42-20-57-9-37 3-73 44-149 29-56 60-97 72-97 13 0 40 38 66 93 40 80 44 101 36 158l-9 65 49 0c41 0 57 10 97 58 57 69 74 64 43-15-22-53-22-58 3-101 33-57 93-67 139-24 18 17 35 27 38 24 3-3 10-34 14-69 8-57 4-72-35-133-44-68-89-98-203-135-52-17-56-10-18 31 48 50 38 162-15 179-33 11-25 21-93-93-43-73-72-104-53-114 28-16 31-22 20-36-18-22 0-57 104-202 71-102 79-118 61-136-18-18-27-11-74 53z" horiz-adv-x="1000" />
<glyph glyph-name="defense" unicode="&#xe807;" d="M50 221l0 244 0 243c41 16 112 45 153 58 68 20 144 44 192 42 46-2 116-24 165-39 58-21 110-41 165-69-3-196 6-371-16-461-38-120-158-243-309-340-166 75-247 190-350 322z m494-159c80 80 133 181 133 259l2 63-257 2-1-419c0 0 58 30 123 95z m-182 368l0 318c-51-7-106-16-154-28-60-16-73-23-123-43l0-107c0-60-2-140 5-140z" horiz-adv-x="800" />
<glyph glyph-name="threat" unicode="&#xe808;" d="M229-41c-18 35-64 190-91 306-13 54-46 112-53 139-7 24-8 38-8 64 1 17 14 59 18 95 9 75 32 144 48 144 6 0 13-43 16-95 4-69 18-121 50-190 25-52 48-94 52-94 4 0 14 13 23 29 13 24 9 50-15 127-24 74-30 116-23 176 11 110 29 119 47 22 20-105 53-184 82-195 13-5 41 1 63 14 50 29 84 29 147-1 34-16 54-19 64-9 21 21 83 202 83 243 1 68 31 5 38-81 6-61 2-101-15-142-25-63-30-163-9-176 19-12 92 139 111 229 9 41 12 90 7 108-5 19-2 35 5 35 35 0 88-268 60-302-20-23-70-185-70-225-1-38-80-238-94-237-6 0-37 13-68 28-85 41-300 39-383-5-72-37-69-37-85-7z" horiz-adv-x="1000" />
<glyph glyph-name="link" unicode="&#xe809;" d="M8 96q-17 66 0 132t67 115l131 131q49 49 115 67t131 0 116-67q20-20 20-49t-20-50-50-20-49 20q-35 34-82 34t-81-34l-132-131q-33-34-33-82t33-82q34-33 82-33t81 33l27 28q78-38 164-35l-91-92q-49-49-115-66t-132 0-115 66-67 115z m291 180q0 29 21 49 20 21 49 21t50-21q33-34 81-34t82 34l131 132q34 34 34 81t-34 81q-33 34-81 34t-82-34l-27-26q-77 36-164 35l91 91q50 49 116 66t131 0 115-66q49-49 67-115t0-132-67-115l-131-131q-49-49-115-67t-132 0-114 67q-21 21-21 50z" horiz-adv-x="887.2" />
<glyph glyph-name="flash" unicode="&#xe80a;" d="M598 349q23-12 26-39t-16-45l-391-370q-14-14-35-14-28 0-43 24t-6 49l113 270-220 128q-22 12-25 38t15 45l391 370q11 14 35 14 21 0 37-16t15-36q0-13-5-23l-111-267z" horiz-adv-x="624" />
<glyph glyph-name="attach" unicode="&#xe80b;" d="M0 65q8 68 67 127l383 383q117 115 211 33 84-86-36-209l-353-351-66 70 349 349q2 0 8 6l8 8t7 9 6 10 6 9 4 11l0 10t-2 12q-19 17-74-37l-381-381q-37-35-41-69-4-39 35-78 41-33 70-28t71 46q82 80 218 215t194 195q2 2 18 17t17 17 15 16 15 17 12 17 13 19 11 20 10 25q16 57-33 123t-115 75q-68 7-152-73l-418-418-69 67 418 420q98 95 199 100t190-83q105-107 74-236-19-74-94-150-86-84-246-245l-209-209q-70-70-150-72-68 0-125 57-70 70-64 156z" horiz-adv-x="896" />
<glyph glyph-name="database" unicode="&#xe80c;" d="M686 208q14 20 14-2l0-100q0-74-104-135t-246-61q-140 0-245 61t-105 135l0 100q0 8 4 10t10-8q32-52 125-86t211-34 211 34 125 86z m2 254q8 16 12 0l0-116q0-68-102-114t-248-46q-144 0-247 46t-103 114l0 116q0 20 14 0 30-46 124-75t212-29 212 29 126 75z m-338 328q144 0 247-39t103-93l0-64q0-58-103-99t-247-41-247 41-103 99l0 64q0 54 103 93t247 39z" horiz-adv-x="700" />
<glyph glyph-name="rocket" unicode="&#xe80d;" d="M543 236q6-50 8-81t-8-59-13-40-35-32-45-26-70-31-85-37q-32-12-45 4t-3 44l40 110-130 132-106-40q-28-12-43 2t-3 46q12 30 31 79t27 65 22 45 25 36 29 20 41 13l52 0t71-6q10 14 29 39t77 85 118 104 145 75 165 19q8 0 14-6 4-4 6-14 10-82-18-168t-76-151-98-118-86-81z m50 296q22-22 54-22t54 22q22 24 22 56t-22 56q-22 22-54 22t-54-22q-22-24-22-56t22-56z" horiz-adv-x="860" />
<glyph glyph-name="globe" unicode="&#xe80e;" d="M0 350q0 95 37 182t100 149 150 100 182 37 182-37 149-100 100-149 37-182q0-95-37-182t-100-150-149-100-182-37-182 37-150 100-100 150-37 182z m156 216q14 3 18 1 2-2 3-3t2-2 0-3v-5q1-29 21-18 7 4 11 21t6 21q5 9 22 25 2 1 6 5t6 6 5 6 2 8q0 10-7 15t-17 6q-44-35-78-83z m84-368q3-18 12-30t19-19 28-10 29-3 32-1 29-1q17-1 23-6t11-19q2-5 6-17t7-20 4-17q2-9 4-28t2-25q4-24 11-32 2 0 6-1t6 0q59 0 120 20 7 4 19 13t14 12q2 1 7 2t6 5 4 6q2 3 2 7t-2 6-2 6-4 7q-1 4-2 9t1 7 4 7 5 6 7 6 7 7q13 13 33 49 20 36 19 53-7 0-25-4t-29-1q-24 4-51 32-22 23-21 54 1 6 1 8t5 4q5-5 20-15t21-18q2-2 5-7t4-7 5-5 7-7 9-10 9-10q7-5 17-2t17 9q4 3 6 8t4 8 2 11 2 9q1 5 6 12t6 13 0 31q-16 0-23-4-2-1-7-7t-10-4q-11 0-17 9t-7 20q4 3 10 4t10 1 13 0 11-1q18 0 39 9 8 4 15 5t15-2 13-6 14-10q3-2 7-5t7-7 7-5 7-2 6 4q4 4 5 12t0 18-1 14l2 20q1 3 5 12-11 111-79 198t-171 124q-7-11-9-28t0-43 2-30q0-7-2-12t-8-8-9-8q-18-21-36-18-5 1-18 4t-20 4-17 1-19-4-17-12q-1-2-6-6t-6-6-4-6-4-7-1-8q0-2-1-9t0-10 2-7 6-7q6-3 16-2t16 4q6 4 9 18t4 14q5 10 14 12t15-6q9-13-4-35-7-11-13-17t-19-10q-1-1-4-2t-6-2-6 0q-2 1-6 5t-6 5q-12 3-30-14-14-13-30-15-2 0-6 0h-7t-7-1-3-4 1-8q1-3 7-10t5-17q-3 0-10 1t-13 0-11-2-9-6q-3-6-8-22t-2-20q4-8 33-8 24-2 27 15 4 2 9 8t8 8q7 6 20 7 7 1 12 1t9-4 6-6 5-9 5-9q10-15 17-13 4 1 3 12 0 7-7 19t-7 23q5 0 8 0t6-4 4-6 4-8 3-7q5-14 10-21 0 0 5-4t6-7q1 1 8 13t10 18q8 20 18 29 10 9 35 9 21 0 21-10-1-4-6-9-3-3-21-10t-30-16-3-17q6-5 20-4t20-1q4-2 6-6t1-6-1-10-2-8v-6q-11-7-28-8t-43 1-28 3q-21 1-44 19-11 8-19 11t-24 3q-71 3-115-34-50-42-39-103z m40 447q7-3 15-1t18 6 16 5 12-1 4-17q-4-1-17-5t-21-7-17-11-9-16q0-4 1-7t4-5 6-3 7-2 8 0 9 0 8 0 7 1 6 1q29 3 49 18 44 33 51 59 3 12-5 18t-18 7-22 2-16 8q-2 2-2 21 0 2 0 2-65-21-87-34 12-9 8-19-1-1-9-7t-6-13z" horiz-adv-x="937.5" />
<glyph glyph-name="asterisk" unicode="&#xe80f;" d="M827 264q26-14 33-43t-7-55l-35-61q-15-26-44-33t-54 7l-149 85v-171q0-29-21-50t-50-22h-71q-29 0-51 22t-21 50v171l-148-85q-26-15-55-7t-43 33l-36 61q-14 26-7 55t34 43l148 86-148 86q-26 14-34 43t7 55l36 61q15 26 43 33t55-7l148-85v171q0 29 21 50t51 22h71q29 0 50-22t21-50v-171l149 85q26 15 54 7t44-33l35-61q15-26 7-55t-33-43l-148-86z" horiz-adv-x="928.6" />
<glyph glyph-name="king" unicode="&#xe810;" d="M2 597q9 42 45 65 36 24 78 15t66-45q18-28 16-61t-20-58q22-32 45-54t41-32 32-14 26-4q2 1 19 3 21 0 36 16t22 43 11 53 3 57q-32 10-52 37t-20 62q0 43 30 73t74 30 74-30 30-73q0-35-20-62t-52-37q0-31 3-57t11-53 22-43 36-16q2 0 6-1t7-1 6-1q12 0 26 4t32 14 41 32 45 54q-19 26-21 59t17 60q23 36 65 45t78-15q37-23 46-65t-15-78q-18-28-49-40t-62-4q-29-44-54-99t-34-89l-10-33q-7-32-15-81t-16-98-10-64q-5-28-37-50t-72-34-78-11q-38 0-79 11t-72 34-37 50q-2 14-9 64t-15 99-16 80q-4 14-11 37t-32 81-55 103q-32-8-63 4t-48 40q-24 36-15 78z" horiz-adv-x="908.2" />
<glyph glyph-name="1st" unicode="&#xe811;" d="M256 357q-42 91-42 207h-143v-53q0-44 53-91t132-63z m601 154v53h-143q0-116-41-207 79 16 131 63t53 91z m72 71v-71q0-40-24-80t-62-73-97-54-120-25q-23-30-53-53-21-19-29-40t-8-50q0-30 17-51t54-21q42 0 75-25t32-64v-36q0-8-5-13t-13-5h-464q-8 0-13 5t-5 13v36q0 39 33 64t74 25q38 0 55 21t17 51q0 28-8 50t-30 40q-29 23-53 53-63 3-120 25t-96 54-63 73-23 80v71q0 22 16 38t38 16h160v53q0 37 27 63t63 27h321q37 0 63-27t26-63v-53h161q22 0 38-16t16-38z" horiz-adv-x="928.6" />
<glyph glyph-name="2nd" unicode="&#xe812;" d="M496 231l3 0 117-223-125-11-78-92-104 164-104-164-84 94-121 9 118 223 1 2c1-9 5-15 10-23 9-12 22-20 39-29 13-5 26-7 37-7 13 0 25 2 33 7 6-5 12-11 20-15 12-7 28-12 47-12 18 0 33 5 46 12 8 4 13 10 18 15 11-5 22-7 35-7 11 0 22 2 36 7 19 9 30 17 39 29 5 8 10 14 12 23 2-2 3-2 5-2z m100 295c5-7 8-18 8-31s-3-22-8-30c-6-14-78-10-92-10l0 0c12-6 80-29 81-42 3-10 0-20-5-33-10-27-29-34-40-34-7 0-62 33-65 35l-4 2 2-2c7-7 65-57 60-70-3-10-8-18-17-27-12-13-23-19-37-19-8 0-54 54-61 61l-2 2 0-4c5-10 37-76 29-86-6-8-14-15-26-19-9-4-18-6-25-6-16 0-43 70-50 82l0 0c0-12 4-85-9-91-7-6-19-9-30-9-14 0-24 3-31 9-13 6-9 79-9 91l0 3-1-3c-5-12-33-82-50-82-6 0-15 2-25 6-11 4-19 11-25 19-9 10 22 76 27 86l3 4-5-2c-8-7-53-61-60-61-11 0-24 6-36 19-9 9-15 17-17 27-3 13 50 63 58 70l4 2-5-2c-3-2-58-35-63-35-14 0-30 7-42 34-5 13-7 23-5 33 1 13 70 36 82 42l0 0c-12 0-85-4-92 10-7 8-8 18-8 30s1 24 8 31c7 12 80 8 92 8l3 0-3 1c-12 5-81 29-82 44-2 9 0 20 5 31 12 28 28 33 42 33 5 0 60-33 63-35l5-2-4 4c-8 8-61 56-58 70 2 9 8 18 17 28 12 11 25 16 36 16 7 0 52-50 60-59l5-4-3 5c-5 10-36 75-27 88 6 7 14 12 25 17 10 4 19 5 25 5 17 0 45-68 50-82l1-3 0 3c0 14-4 86 9 94 7 5 17 7 31 7 11 0 23-2 30-7 13-8 9-80 9-94l0 0c7 14 34 82 50 82 7 0 16-1 25-5 12-5 20-10 26-17 8-13-24-78-29-88l0-5 2 4c7 9 53 59 61 59 14 0 25-5 37-16 9-10 14-19 17-28 5-14-53-62-60-70l-2-4 4 2c3 2 58 35 65 35 11 0 30-5 40-33 5-11 8-22 5-31-1-15-69-39-81-44l-3-1 3 0c14 0 86 4 92-8z m-291-225c106 0 193 88 193 194 0 108-87 195-193 195-107 0-196-87-196-195 0-106 89-194 196-194z m0 45c-84 0-151 67-151 149 0 84 67 150 151 150 83 0 148-66 148-150 0-82-65-149-148-149z" horiz-adv-x="616" />
<glyph glyph-name="heart" unicode="&#xe813;" d="M500-79q-14 0-25 10l-348 336q-5 5-15 15t-31 36-38 55-30 67-13 77q0 123 71 192t196 70q34 0 70-12t67-33 54-38 42-38q20 20 42 38t54 38 67 33 70 12q125 0 196-70t71-192q0-123-128-251l-347-335q-10-10-25-10z" horiz-adv-x="1000" />
<glyph glyph-name="heart-empty" unicode="&#xe814;" d="M929 517q0 46-12 80t-31 55-46 33-52 18-55 4-62-14-62-36-48-40-34-34q-10-13-27-13t-27 13q-14 15-34 34t-48 40-62 36-62 14-55-4-52-18-46-33-31-55-12-80q0-93 105-198l324-312 324 312q105 105 105 198z m71 0q0-123-128-251l-347-335q-10-10-25-10t-25 10l-348 336q-5 5-15 15t-31 36-38 55-30 67-13 77q0 123 71 192t196 70q34 0 70-12t67-33 54-38 42-38q20 20 42 38t54 38 67 33 70 12q125 0 196-70t71-192z" horiz-adv-x="1000" />
<glyph glyph-name="star" unicode="&#xe815;" d="M929 489q0-12-15-27l-203-197 48-279q1-4 1-12 0-11-6-19t-17-9q-10 0-22 7l-251 132-250-132q-13-7-23-7-11 0-17 9t-6 19q0 4 1 12l48 279-203 197q-14 15-14 27 0 21 31 26l280 40 126 254q11 23 27 23t28-23l125-254 280-40q32-5 32-26z" horiz-adv-x="928.6" />
<glyph glyph-name="star-empty" unicode="&#xe816;" d="M634 290l171 165-235 35-106 213-105-213-236-35 171-165-41-235 211 111 211-111z m295 199q0-12-15-27l-203-197 48-279q1-4 1-12 0-28-23-28-10 0-22 7l-251 132-250-132q-13-7-23-7-11 0-17 9t-6 19q0 4 1 12l48 279-203 197q-14 15-14 27 0 21 31 26l280 40 126 254q11 23 27 23t28-23l125-254 280-40q32-5 32-26z" horiz-adv-x="928.6" />
<glyph glyph-name="comment" unicode="&#xe817;" d="M1000 350q0-97-67-179t-182-130-251-48q-39 0-81 4-110-97-257-135-27-8-63-12-10-1-17 5t-10 16v1q-2 2 0 6t1 6 2 5l4 5t4 5 4 5q4 5 17 19t20 22 17 22 18 28 15 33 15 42q-88 50-138 123t-51 157q0 73 40 139t106 114 160 76 194 28q136 0 251-48t182-130 67-179z" horiz-adv-x="1000" />
<glyph glyph-name="comment-empty" unicode="&#xe818;" d="M500 636q-114 0-213-39t-157-105-59-142q0-62 40-119t113-98l48-28-15-54q-13-50-39-96 85 36 154 96l24 21 31-3q39-5 73-5 114 0 213 39t157 105 59 142-59 142-157 105-213 39z m500-286q0-97-67-179t-182-130-251-48q-39 0-81 4-110-97-257-135-27-8-63-12h-3q-8 0-15 6t-9 15v1q-2 2 0 6t1 6 2 5l4 5t4 5 4 5q4 5 17 19t20 22 17 22 18 28 15 33 15 42q-88 50-138 123t-51 157q0 97 67 179t182 130 251 48 251-48 182-130 67-179z" horiz-adv-x="1000" />
<glyph glyph-name="willpower" unicode="&#xe819;" d="M324-91c-73 29-91 48-117 69-61 50-97 86-135 171-49 105-48 296 1 402 155 335 645 359 832 40 94-161 75-407-43-545-96-112-214-164-370-163-67 1-114 5-168 26z m273 189c-16 8-35-15-92-13-51 2-77 22-90 11-10-8 72-197 85-197 20-3 103 193 97 199z m-212 11c2 13-37 19-69 47-34 30-44 65-59 66-16 1-90-183-79-191 10-15 206 63 207 78z m448-66c14 21-77 194-100 198-8-15-14-38-41-72-26-32-56-37-66-57-10-17 197-82 207-69z m-169 133c54 54 66 104 65 191-2 98-50 149-137 194-142 74-329-38-326-220 1-72 30-123 67-160 46-45 126-69 155-68 66 4 114 3 176 63z m-425 164c-1 31 17 79 11 84-10 10-196-56-196-73-1-32 194-114 198-90 3 16-12 51-13 79z m625-38c45 20 83 29 83 49-19 18-189 100-200 84-8-16 9-28 8-74 0-39-3-57-3-90 1-16 67 12 112 31z m-548 238c37 33 41 31 63 46 0 12-187 89-201 75-14-13 75-192 89-202m466 9c25 9 95 190 81 202-16 16-200-64-205-82 32-19 41-19 72-47 29-27 31-32 52-73z m-156 133c0 0-49 191-86 196-30-3-82-201-82-201 0-5 40 9 86 10 46 1 90-22 82-5z" horiz-adv-x="1000" />
<glyph glyph-name="unique" unicode="&#xe81a;" d="M538 661c-27 23-39 23-65 2-25-21-6-63 12-88 18-24 18-23 36 0 18 22 43 62 17 86z m206-246c20 13 20 23 1 80-18 54-33 71-89 95-73 33-89 30-102-18-5-22 10-54 49-101 56-67 97-84 141-56z m-353 43c40 39 59 72 59 100 0 59-18 65-97 31-54-23-73-42-92-92-44-110 33-133 130-39z m275-338c42 21 65 48 83 94 26 64 26 64-13 79-55 21-54 21-119-46-35-36-58-75-58-98 0-68 20-73 107-29z m-219 21c4 33-9 58-55 106-51 52-68 61-103 52-46-12-49-26-24-99 18-50 108-113 154-106 13 2 26 23 28 47z m-207-55l-114 263 109 266 266 114 267-107 106-273-109-268-264-110z m-38 296c-23-27-24-39-3-65 22-25 64-6 89 12 24 18 22 18 0 36-23 18-62 44-86 17z m267-345c27-23 39-24 65-2 25 21 6 63-12 88-18 24-18 22-36 0-18-22-43-62-17-86z m329 279c24 27 24 39 3 65-21 25-63 6-88-12-25-18-23-18 0-36 22-18 62-44 85-17z" horiz-adv-x="1000" />
<glyph glyph-name="neutral" unicode="&#xe81b;" d="M604-85c177 9 330 62 374 130 10 16 13 27 11 48-4 52-34 85-99 107-35 11-84 20-140 26l-24 2-17 24c-9 13-18 29-21 36-10 20-18 50-20 74-2 13-4 28-5 33-1 5-3 23-4 38-3 45-6 58-26 105-17 42-12 75 15 88 15 7 40 10 66 7 26-3 47-7 88-20 19-6 34-10 35-10 2 2-4 18-11 28-9 14-46 51-74 73-84 67-148 89-230 80-38-4-64-15-84-35-21-21-28-37-45-101-5-17-11-35-16-44-15-30-35-85-43-116-2-8-7-33-12-56-15-79-46-206-50-207-1-1-18-3-37-6-134-20-206-58-222-117-5-22-3-31 11-44 41-38 196-85 417-126 98-18 112-20 163-17z m-188 111c-63 10-105 28-133 58-12 13-22 32-25 44l-1 7 4-9c6-11 27-32 44-43 46-31 114-45 211-46 38 0 49 1 62 4 56 12 105 39 149 84 15 15 18 18 17 13-5-20-32-54-57-71-35-23-83-39-138-44-28-3-103-1-133 3z m-157 151c2 6 3 10 4 9 0 0-1-5-2-10-1-6-3-10-3-9-1 0 0 5 1 10z" horiz-adv-x="1000" />
<glyph glyph-name="hero" unicode="&#xe81c;" d="M543-91c-40 8-68 29-91 67-16 27-26 65-28 104 0 1-4-7-9-17-8-16-10-19-15-20-2 0-69-15-148-33-79-18-143-33-144-32 0 0 21 62 47 136 40 111 49 136 51 135 2-1 13-4 26-9 46-15 82-21 125-20 24 1 66 7 71 10 1 0 2 8 2 18l0 17-34 2c-51 3-72 7-143 27-41 12-44 13-47 25-2 7 0 15 5 21 5 6 15 13 20 14 4 1 8 6 19 22 23 36 56 66 91 84 37 19 65 26 108 26 31 0 45-2 72-11l14-4 12 11 12 12-7 4c-23 14-57 26-97 34-19 4-27 5-48 5-14 0-27 0-29-1-3-1-4 2-7 22-3 13-4 24-3 24 2 3 37 6 58 5 52-3 109-19 155-44 16-9 14-6-4 6-48 32-122 54-202 60l-6 0-14 79c-8 43-16 83-17 88-2 6-2 11-2 12 3 3 50 5 79 4 75-2 146-21 218-58 52-26 93-55 130-90 38-38 62-70 84-116 21-41 32-78 40-125 5-28 6-88 4-118-6-55-20-114-43-172-13-34-55-111-60-111-2 0-150 55-151 56-1 1 3 13 8 27 39 106 46 173 24 244-7 24-36 90-48 107-1 2-3 1-11-5l-10-7 5-6c32-36 50-93 44-140-2-24-8-44-22-73-30-65-34-76-35-116-1-30 1-45 11-66 15-32 44-61 80-79 6-2 10-5 10-6 0-3-15-12-29-17-25-9-46-13-78-13-21-1-33 0-43 1z" horiz-adv-x="1000" />
<glyph glyph-name="ally" unicode="&#xe81d;" d="M689-60c-53 10-91 37-121 88-21 35-35 86-37 137 0 2-6-8-13-22-10-21-13-25-19-26-3-1-92-21-196-44-104-24-190-43-191-43 0 1 28 82 63 181 52 146 64 179 67 178 2 0 18-5 34-11 62-21 109-29 166-27 32 2 88 9 94 13 1 0 2 11 2 24l0 22-45 3c-66 4-94 10-188 36-55 15-58 17-63 33-2 10 0 20 7 28 6 8 20 17 27 19 5 1 10 8 24 28 31 48 75 88 121 112 49 25 86 34 143 34 41 0 66 0 95-14 46-20 86-56 115-97 32-48 62-102 55-165-3-32-11-57-29-96-40-86-45-101-47-153-1-40 2-60 15-88 19-42 58-81 106-104 8-4 14-8 14-9 0-4-20-15-39-22-33-12-61-17-103-18-28-1-44 0-57 3z" horiz-adv-x="1000" />
<glyph glyph-name="enemy" unicode="&#xe81e;" d="M484-30c-15 19-17 58-17 313l0 292 35 0 35 0 1-294c0-270-2-295-19-313-17-18-20-18-35 2z m-351 155l3 36 153 0 152 0 3-37 4-36-159 0-159 0 3 36z m425 1l0 38 150-2 151-2 3-36 3-36-153 0-154 0 0 38z m-394 114c3 26 17 72 30 102l24 56-65 38c-90 53-94 67-52 202 19 60 37 104 41 96 4-8 10-41 14-72 12-93 30-129 77-157l43-25 63 36c110 61 107 65 107-144l0-180-143 0-144 0 5 48z m394 132c0 208-3 203 98 145l60-35 43 21c49 22 65 55 83 170 6 37 13 70 15 72 5 6 68-196 68-220 0-29-44-75-97-102-45-23-55-37-36-50 9-7 33-86 45-149l7-32-143 0-143 0 0 180z" horiz-adv-x="1000" />
<glyph glyph-name="event" unicode="&#xe81f;" d="M204-91c81 114 223 322 222 323-1 1-31-2-67-7-35-5-68-9-73-9-5 0 35 41 107 107 63 58 121 112 130 119l16 14-20 3c-11 1-36 3-57 3-20 1-49 2-63 4l-26 3 215 171c117 94 218 175 224 179 6 5-29-47-78-115-48-68-87-126-87-128 0-2 36-4 84-5l85-1-116-103-115-104 23-1c13-1 51-3 84-4l61-3-258-215c-142-119-270-226-285-238l-26-22 20 29z" horiz-adv-x="1000" />
<glyph glyph-name="attachment" unicode="&#xe820;" d="M99-23l0 29 129 129c72 72 132 130 134 130 5 0 50-45 50-51 0-2-59-63-132-135l-131-131-25 0-25 0 0 29z m358-21c-12 2-21 5-20 7 8 16 27 58 31 70l5 15 32 0c175 0 323 140 339 320l2 32 35 14c18 8 35 14 37 13 6-4 14-55 13-94-1-136-97-272-240-341-61-30-90-37-157-39-31 0-65 1-77 3z m29 133c2 5 4 36 4 69l2 60 93 93 93 93 22-8c18-6 33-8 66-8l43 0 0-19c0-48-34-133-71-177-54-65-130-103-221-110l-34-3 3 10z m-73 175c-21 19-37 37-37 39 0 2 46 50 103 107l104 104 39-40 39-39-104-103c-56-57-104-103-105-103-1 0-19 16-39 35z m-306 40c-7 28-9 75-4 111 26 198 203 368 383 367 31 0 88-8 93-13 1-1-4-13-10-27-6-14-13-31-16-37-4-10-6-11-25-11-11 0-34-3-51-6-128-27-227-116-266-241-4-15-10-50-13-77-3-29-6-49-9-49-2 0-18-7-36-14-18-8-34-16-37-17-3-1-6 4-9 14z m124 54c0 30 10 78 22 109 43 107 140 178 265 193l20 3 1-48c0-34 2-52 7-65l7-18-96-96-95-95-34 2c-22 2-46 1-66-3l-31-6 0 24z m414 142l-26 26 15 15 15 15 26-28 26-28-13-13c-7-7-14-14-15-14-1 0-14 12-28 27z" horiz-adv-x="1000" />
<glyph glyph-name="treasure" unicode="&#xe821;" d="M340 13c-146 68-206 97-211 102-4 3-10 11-13 17l-5 10-1 131-1 131 81-38 81-37 0-24c0-35-1-34 52-59 29-13 38-17 45-17 17 0 32 14 32 31l0 9 72-34 73-34 0-142c0-78-1-141-1-141 0 0-92 43-204 95z m237 11c0 59 1 123 2 142l1 35 151 72 152 71 0-131-1-131-6-11c-3-6-9-14-14-17-5-5-60-31-147-72l-138-64 0 106z m-97 241l-80 38 0 8c0 10-4 17-11 23-2 2-21 12-41 21-46 21-49 22-69 8-3-2-18 4-76 31-41 19-73 35-73 36 1 1 38 18 84 39l82 39 152-71 152-71 110-8c61-4 111-8 111-8 0-1-260-123-261-122 0 0-36 17-80 37z m275 120c-66 5-122 9-123 10-6 0 14 34 36 61 63 78 155 119 214 94 45-19 51-80 16-156-8-18-8-18-15-18-4 0-61 4-128 9z m-378 119l-217 101 2 5c28 68 97 137 161 161 35 13 66 15 92 6 7-3 102-46 210-97l198-93-18-4c-30-7-51-16-80-34-48-30-93-79-119-129-5-10-10-18-11-18-1 0-99 46-218 102z" horiz-adv-x="1000" />
<glyph glyph-name="quest" unicode="&#xe822;" d="M273-84c-5 2-185 201-189 208-2 4-2 10-1 22 2 34 8 91 17 158 14 113 17 170 14 219-4 50-10 87-24 133-7 25-8 31-4 39 4 8 7 9 29 10l20 1-10 7c-5 4-11 10-12 13-6 10-2 24 6 29 10 5 122 21 171 25 16 1 20 0 25-2 3-2 22-20 42-41 21-21 37-38 38-37 0 0-1 16-3 35-3 38-3 43 8 49 5 3 14 3 86 3 55 0 91-2 113-3 18-2 47-4 64-5 48-1 111-8 118-11 3-2 19-13 34-26l27-22 8-17c13-29 27-70 27-81 0-9-7-16-32-37l-25-21 29-1c16 0 30-2 32-2 9-5 12-19 15-90 1-39 1-48-1-52-1-3-12-15-24-28l-22-24 22-12c15-9 23-14 24-18 2-3 3-26 5-61 3-110 12-178 32-254 7-30 22-75 24-77 1-1 2-6 2-11 0-10-5-18-14-20-9-2-153 1-223 5-104 6-151 7-192 7-52 0-54 2-55 36 0 10 0 19-1 21-1 1-8-3-24-16-25-20-27-22-35-22-9 0-14 4-23 19-5 7-10 13-10 13 0 0-7-11-14-25-11-20-15-26-20-29-3-2-17-4-33-6-32-4-35-4-41-1z m655 49c-31 92-44 176-49 325l-1 38-31 18-31 17 31 32 30 32 0 23c0 22-2 55-5 83l-1 12-54-1-54-1 6 5c3 3 24 20 47 39l41 35-4 16c-4 15-19 55-24 64-2 4-55 48-59 49-2 1-80 8-117 10-60 5-108 6-175 6l-69 0 0-6c2-9 11-108 11-113 0-3-12 9-47 44-26 26-52 53-57 59l-11 10-36-3c-59-6-138-18-138-21 0-1 13-13 30-27l30-25-44-1c-42 0-45 0-44-3 5-12 15-49 19-69 10-47 11-66 11-127 0-64-1-78-15-198-11-84-16-137-15-148 0-8 5-13 87-104 48-53 88-97 89-99 2-2 5-2 24 0 40 4 33 0 51 34 8 16 17 34 20 39l5 10 17-27c9-14 17-26 18-26 1 0 19 14 39 30l38 31 1-9c1-5 1-23 1-40l0-30 45-2c47-1 126-4 216-9 74-4 76-4 133-4l52-1-11 33z m-83 26c-20 20-39 35-60 48l-12 7-16-10c-31-17-61-27-90-30-18-1-39-1-39 2 0 0 4 2 9 3 24 6 63 29 83 50l8 9-26 10c-14 6-35 14-48 19-12 4-22 8-22 8-1 1-6 47-6 53 0 6 1 6 20 0 28-9 60-26 92-47 9-6 17-10 18-10 1 1 10 14 20 29 10 15 19 27 20 27 2 0 51-21 53-23 5-4-16-36-37-57l-14-14 16-16c18-20 34-42 44-62 4-8 8-16 7-16 0 0-9 9-20 20z m-124 197c0 2-1 10-2 17-1 12-1 12 3 13 12 3 29 5 30 4 1-1 5-33 3-34 0-1-8-2-17-2-14-1-16-1-17 2z m-330 40c-2 14-2 25 1 26 1 1 9 1 17 2l14 1 2-16c1-9 2-17 1-17-1-2-18-4-27-4-7-1-7 0-8 8z m-56-3c-23 6-22 5-14 22 4 8 7 15 7 15 0 1 7 0 15-2l15-4-1-6c-1-4-2-12-3-18 0-6-2-11-3-11-1 1-8 2-16 4z m129 8c-4 14-8 30-7 31 1 1 23 9 28 11 1 0 14-26 14-30 0-4-34-15-35-12z m245 22c-2 3-4 9-7 14l-4 9 15 9 15 10 7-16c4-9 8-17 8-18 0-2-7-5-16-8l-17-5-1 5z m-436 8c-5 7-14 24-14 28 0 2 5 4 16 7 9 3 16 4 17 4 0 0 1-1 2-4 0-2 3-8 6-12l5-7-12-11c-7-6-13-11-13-11-1 0-4 3-7 6z m253 10c-5 8-8 15-8 16 0 2 25 18 27 17 1 0 5-7 11-14l9-13-9-6c-5-3-12-8-16-10l-7-4-7 14z m64 25c0 2-3 9-5 15-3 6-5 12-5 12 0 2 12 6 26 10l10 3 3-14c4-21 4-20-9-24-6-2-13-4-15-5-2 0-4 1-5 3z m77 4c-4 2-9 3-11 4-2 0-2 4-1 17 0 9 1 16 2 17 3 3 39-10 39-13 0-4-16-28-18-28-1 0-6 1-11 3z m-395 31c-13 2-17 3-17 5 0 4 7 32 9 34 0 0 8-2 17-5 13-4 16-6 15-8-1-1-2-8-4-15-1-6-3-12-3-12 0 0-8 0-17 1z m24 66c-7 4-14 8-14 8-1 2 12 30 14 30 2 0 29-11 31-13 1 0-16-33-17-33 0 0-7 4-14 8z m287 51c-10 7-14 11-13 12 0 2 10 16 22 32 11 16 20 30 20 30 0 3-40 96-41 96-1 0-11-17-24-37l-22-37 11-21c5-11 10-21 10-22 0-1-6-5-14-9-18-8-14-11-34 28-8 15-15 28-16 28-1 0-11-24-23-53-13-29-24-53-24-54-3-1-31 12-31 15 2 5 73 173 75 173 0 0 5-7 9-16 5-10 11-21 14-25l4-8 33 54c19 30 35 56 36 58 2 3 6-6 32-66 16-38 30-69 30-69 1 0 10 13 22 29 11 15 20 28 21 27 3-3 89-151 88-152-2-3-28-17-29-16-1 1-15 24-30 51-16 27-30 50-31 51-2 2-12-11-40-50-21-30-39-55-40-56-1-2-4-1-15 7z m-267 15l-13 2-1 14 0 14 15 5c9 2 16 5 17 5 2 0 5-15 5-28 0-16 2-15-23-12z m-35 58c-3 3-8 7-12 9l-6 4 7 12c10 18 10 18 19 13 8-5 23-17 23-19 0 0-6-6-13-13l-13-11-5 5z m-65 30c-6 2-12 4-13 5-1 1 5 31 6 33 1 1 32-7 34-9 1-1-1-8-4-17-5-17-4-16-23-12z" horiz-adv-x="1000" />
<glyph glyph-name="campaign" unicode="&#xe823;" d="M214 197c-151 353-182 427-182 436 0 4 4 12 10 17 8 8 11 9 28 8 10-1 33-7 50-13 91-33 191-19 269 39 71 53 153 82 233 81 46 0 79-7 117-26 52-25 89-58 113-99 11-18 28-63 28-71 0-11-11-10-42 3-82 35-156 40-213 14-25-12-54-40-83-78-35-49-101-92-164-109-36-10-117-12-157-4-13 3-25 4-26 3-2-1 153-373 157-378 2-3 159 56 181 67 13 6 31 14 40 16 42 9 94 1 129-22l18-11 19 19c35 35 80 49 124 39 48-12 83-45 98-90 12-41 21-37-90-37-53 0-97-2-97-3 0-2 3-14 6-29 3-14 5-27 5-30 0-3-48-4-229-4l-230 0-112 262z m343-38c-69 32-83 122-27 172 41 37 97 37 138 0 44-40 47-108 5-150-30-30-79-39-116-22z m235 12c-64 28-64 122 1 149 58 24 121-27 111-89-8-48-66-80-112-60z" horiz-adv-x="1000" />
<glyph glyph-name="location" unicode="&#xe824;" d="M63 76c12 44 27 87 45 128 24 53 86 150 86 150 79 138 110 11 120 15 20 6 26 152 87 93 32-32 78-76 101-97 30-28 43-43 43-52 0-15-10-28-87-109-79-84-80-92-14-178 19-25 38-50 41-56 7-11-3-11-196-11l-253-3c0 0 15 81 27 120z m487-37c-78 58-106 83-106 91 0 7 24 39 64 82 35 38 65 76 68 84 7 24-3 38-60 89-30 27-55 50-55 51 0 7 160 265 172 276 42 42 72 13 194-186 0 0 33-72 43-110 19-69 22-142 36-213 17-82 58-244 58-244l-199 0-109 0-106 80z" horiz-adv-x="1000" />
<glyph glyph-name="treachery" unicode="&#xe825;" d="M262-127c8 14 28 46 45 71 18 25 31 46 31 47 0 1-12 1-28 0-25-3-28-2-25 4 4 11 53 83 77 113 33 42 33 39 0 36-34-4-35-7 3 56 19 32 28 43 32 41 4-2 28-4 54-5l46-2-23-23-23-23 48 2c27 2 55 4 62 5l12 2-12-10c-32-24-113-94-142-121l-32-30 40 2c22 2 45 4 51 5l11 2-11-8c-79-57-148-114-203-164l-27-25 14 25z m136 419c-15 3-41 12-57 20-24 12-37 15-64 17-73 5-130 27-156 60-11 13-13 20-13 38 0 25 8 40 31 56l16 12-2 34c-2 39 5 61 29 91 29 37 97 67 150 67l27 0 9 16c12 25 42 52 72 66 24 12 32 13 66 13 32 0 41-1 63-12 15-6 35-20 47-32l20-21 38 1c77 0 132-34 146-89 5-16 4-28-6-58-2-7 2-10 25-20 51-22 83-61 83-99 0-76-121-136-244-120l-37 5-24-15c-42-25-75-33-137-35-38-1-63 1-82 5z" horiz-adv-x="1000" />
<glyph glyph-name="objective3" unicode="&#xe826;" d="M430-88c-90 13-171 53-234 117-65 64-104 144-117 236-3 23-3 76 0 98 15 122 79 226 181 294 23 15 68 37 95 46 71 23 153 27 224 9 38-9 92-31 91-36 0-2 1-18 2-37l3-33-17-17-17-17-22 11c-87 44-187 44-273-1-68-35-121-96-146-170-19-52-21-117-5-174 22-83 84-157 162-193 40-18 72-26 117-27 52-2 87 5 133 26 84 38 146 114 167 203 7 29 9 52 8 82-2 45-11 82-32 123l-11 22 19 19 18 19 19-2c10-1 25-2 34-2l15 0 8-18c24-53 36-101 38-159 4-98-27-191-88-268-65-83-164-138-272-151-21-3-79-3-100 0z m21 207c-30 5-56 16-80 31-14 10-44 40-54 54-52 81-43 183 23 252 41 43 104 66 164 59 19-2 42-7 57-14l7-3-39-38-38-38-13-1c-63-2-111-63-98-125 9-42 40-73 83-83 61-13 123 35 125 98l0 13 39 38 38 39 4-10c16-37 19-88 7-130-20-68-74-121-143-139-23-6-61-7-82-3z m46 203c-11 7-12 11-11 31 0 10 2 21 3 23 1 3 50 53 109 112l107 106-3 32c-4 45-4 52 2 64 4 8 15 21 62 68 52 51 58 57 62 56 4 0 7-2 8-5 1-2 3-20 4-39 2-19 3-35 4-35 1 0 7 6 15 14 16 16 21 19 32 19 10 0 15-3 29-17 13-14 15-17 15-27 0-11-2-14-18-30l-14-15 34-2c37-3 43-4 40-13 0-3-27-30-60-63-72-72-62-67-116-63l-36 3-109-108c-59-60-110-109-112-110-2-2-12-3-22-4-17-1-19 0-25 3z" horiz-adv-x="1000" />
</font>
</defs>
</svg>
